<svg width="20" height="20" viewBox="0 0 20 20" fill="none" xmlns="http://www.w3.org/2000/svg">
<path d="M14.0001 5.26002L14.0001 14.26C14.0001 14.4589 13.9211 14.6497 13.7804 14.7904C13.6398 14.931 13.449 15.01 13.2501 15.01H11.0001L11.0001 18.76C11.0002 18.9084 10.9563 19.0536 10.8739 19.177C10.7915 19.3005 10.6743 19.3967 10.5372 19.4535C10.4001 19.5103 10.2492 19.5252 10.1036 19.4962C9.95806 19.4672 9.82437 19.3957 9.71948 19.2906L0.719477 10.2906C0.649744 10.221 0.594425 10.1383 0.556682 10.0472C0.518939 9.95618 0.499512 9.85858 0.499512 9.76002C0.499512 9.66146 0.518939 9.56387 0.556682 9.47282C0.594425 9.38177 0.649744 9.29905 0.719477 9.2294L9.71948 0.229396C9.82437 0.124387 9.95806 0.0528614 10.1036 0.0238736C10.2492 -0.00511417 10.4001 0.0097393 10.5372 0.0665537C10.6743 0.123368 10.7915 0.219589 10.8739 0.343034C10.9563 0.466479 11.0002 0.611599 11.0001 0.760021V4.51002H13.2501C13.449 4.51002 13.6398 4.58904 13.7804 4.72969C13.9211 4.87034 14.0001 5.06111 14.0001 5.26002ZM16.2501 4.51002C16.0512 4.51002 15.8604 4.58904 15.7198 4.72969C15.5791 4.87034 15.5001 5.06111 15.5001 5.26002L15.5001 14.26C15.5001 14.4589 15.5791 14.6497 15.7198 14.7904C15.8604 14.931 16.0512 15.01 16.2501 15.01C16.449 15.01 16.6398 14.931 16.7804 14.7904C16.9211 14.6497 17.0001 14.4589 17.0001 14.26L17.0001 5.26002C17.0001 5.06111 16.9211 4.87034 16.7804 4.72969C16.6398 4.58904 16.449 4.51002 16.2501 4.51002ZM19.2501 4.51002C19.0512 4.51002 18.8604 4.58904 18.7198 4.72969C18.5791 4.87034 18.5001 5.06111 18.5001 5.26002L18.5001 14.26C18.5001 14.4589 18.5791 14.6497 18.7198 14.7904C18.8604 14.931 19.0512 15.01 19.2501 15.01C19.449 15.01 19.6398 14.931 19.7804 14.7904C19.9211 14.6497 20.0001 14.4589 20.0001 14.26L20.0001 5.26002C20.0001 5.06111 19.9211 4.87034 19.7804 4.72969C19.6398 4.58904 19.449 4.51002 19.2501 4.51002Z" fill="#B3B3B3"/>
</svg>
