<svg width="14" height="14" viewBox="0 0 14 14" fill="none" xmlns="http://www.w3.org/2000/svg">
<path d="M13.3538 13.1462L10.2244 10.0175C11.1314 8.92856 11.5837 7.53186 11.4872 6.11795C11.3906 4.70404 10.7527 3.38177 9.70611 2.42622C8.65951 1.47067 7.2848 0.955399 5.86796 0.987599C4.45113 1.0198 3.10125 1.59699 2.09913 2.5991C1.09702 3.60122 0.519829 4.9511 0.487629 6.36793C0.455429 7.78477 0.9707 9.15948 1.92625 10.2061C2.88181 11.2527 4.20407 11.8906 5.61798 11.9871C7.03189 12.0837 8.42859 11.6314 9.51752 10.7244L12.6463 13.8537C12.6927 13.9002 12.7479 13.937 12.8086 13.9622C12.8693 13.9873 12.9343 14.0003 13 14.0003C13.0657 14.0003 13.1308 13.9873 13.1915 13.9622C13.2522 13.937 13.3073 13.9002 13.3538 13.8537C13.4002 13.8073 13.4371 13.7521 13.4622 13.6914C13.4874 13.6307 13.5003 13.5657 13.5003 13.5C13.5003 13.4343 13.4874 13.3692 13.4622 13.3085C13.4371 13.2478 13.4002 13.1927 13.3538 13.1462ZM1.50002 6.49999C1.50002 5.60997 1.76394 4.73994 2.25841 3.99992C2.75287 3.2599 3.45568 2.68313 4.27795 2.34253C5.10021 2.00194 6.00501 1.91282 6.87793 2.08646C7.75084 2.26009 8.55266 2.68867 9.182 3.31801C9.81134 3.94735 10.2399 4.74917 10.4136 5.62208C10.5872 6.495 10.4981 7.3998 10.1575 8.22207C9.81688 9.04433 9.24011 9.74714 8.50009 10.2416C7.76007 10.7361 6.89004 11 6.00002 11C4.80695 10.9987 3.66313 10.5241 2.8195 9.68051C1.97587 8.83688 1.50134 7.69306 1.50002 6.49999Z" fill="#201F24"/>
</svg>
